Coordinates
version=1
nRows=19
nColumns=36
inDegrees=yes

Units are S.I. units (second, meters, Newtons, ...)
If the header above contains a line with 'inDegrees', this indicates whether rotational values are in degrees (yes) or radians (no).

endheader
time	pelvis_tilt	pelvis_list	pelvis_rotation	pelvis_tx	pelvis_ty	pelvis_tz	hip_flexion_r	hip_adduction_r	hip_rotation_r	knee_angle_r	knee_angle_r_beta	ankle_angle_r	subtalar_angle_r	mtp_angle_r	hip_flexion_l	hip_adduction_l	hip_rotation_l	knee_angle_l	knee_angle_l_beta	ankle_angle_l	subtalar_angle_l	mtp_angle_l	lumbar_extension	lumbar_bending	lumbar_rotation	arm_flex_r	arm_add_r	arm_rot_r	elbow_flex_r	pro_sup_r	arm_flex_l	arm_add_l	arm_rot_l	elbow_flex_l	pro_sup_l
      0.00000000	     26.04307377	     -2.56720742	     -0.75038956	     -0.51674102	      0.58574189	     -0.60403671	     60.96722975	     -5.20390448	     -1.10462688	     98.28454306	      1.71538888	     11.16781753	     -3.57866766	     -4.17581582	     61.53342421	     -8.79172114	      1.13995619	     98.54686872	      1.71996733	     12.02077645	     -8.54739608	     -4.17581582	    -40.99349198	      2.66227296	      1.33621052	     52.31166848	    -11.46525162	      9.82990071	     68.99509125	     92.20442330	     50.83337457	    -10.77284161	      9.88760334	     65.19174391	     79.78367423
      0.01000000	     25.96401566	     -2.58685414	     -0.76060748	     -0.51669752	      0.58567673	     -0.60393982	     61.05113790	     -5.21555594	     -1.15267341	     98.27239052	      1.71517678	     11.19336415	     -3.56978771	     -4.26318446	     61.62709761	     -8.83918681	      1.15999876	     98.54711703	      1.71997166	     12.05661313	     -8.63167875	     -4.26318446	    -41.02229917	      2.64651964	      1.34821238	     52.38205389	    -11.42099309	      9.79496787	     69.00357353	     91.97012091	     50.92428259	    -10.78620479	      9.87612811	     65.24555857	     79.49760441
      0.02000000	     25.89406482	     -2.60101084	     -0.77738816	     -0.51665992	      0.58563246	     -0.60386237	     61.12755223	     -5.23206537	     -1.19769413	     98.26361602	      1.71502363	     11.18189789	     -3.52465543	     -4.37833117	     61.70074962	     -8.86930727	      1.17180457	     98.54457358	      1.71992727	     12.07281361	     -8.58666058	     -4.37833117	    -41.06919509	      2.63825851	      1.36887250	     52.46499440	    -11.39254929	      9.80597196	     69.03280295	     91.56053292	     51.03536614	    -10.86581725	      9.98680866	     65.28445494	     79.22091355
      0.03000000	     25.82833549	     -2.61881855	     -0.78902579	     -0.51659818	      0.58558474	     -0.60381627	     61.19366288	     -5.25279084	     -1.24202539	     98.25083867	      1.71480063	     11.19471266	     -3.48429511	     -4.53266084	     61.76233325	     -8.89787436	      1.18112933	     98.54276815	      1.71989576	     12.14689729	     -8.52250323	     -4.53266084	    -41.12677885	      2.64236385	      1.39008191	     52.56251392	    -11.39521768	      9.84971882	     69.08261720	     90.94757397	     51.15725151	    -10.95679839	     10.15474156	     65.31264876	     78.89313151
      0.04000000	     25.77637810	     -2.63178265	     -0.79157162	     -0.51654130	      0.58550947	     -0.60382300	     61.22711253	     -5.27459296	     -1.28021705	     98.23918445	      1.71459722	     11.24936311	     -3.45250533	     -4.67185964	     61.82448558	     -8.89807626	      1.18659319	     98.53753177	      1.71980437	     12.22928279	     -8.53190628	     -4.67185964	    -41.19532798	      2.65527260	      1.43869160	     52.64762738	    -11.43139677	      9.92094503	     69.13697151	     90.48359316	     51.30094985	    -10.95667848	     10.25571498	     65.31446388	     78.64376951
      0.05000000	     25.71054013	     -2.63255391	     -0.80069601	     -0.51649732	      0.58543295	     -0.60376465	     61.30068491	     -5.30971058	     -1.32057011	     98.22509532	      1.71435132	     11.24211287	     -3.41020521	     -4.79721428	     61.88486814	     -8.90994502	      1.19332541	     98.52679786	      1.71961702	     12.24699585	     -8.49871301	     -4.79721428	    -41.27380400	      2.63586109	      1.46036033	     52.75341563	    -11.47957934	      9.93319274	     69.23215156	     90.02476347	     51.40910981	    -10.90189669	     10.17932435	     65.34672681	     78.36118781
      0.06000000	     25.64942652	     -2.64086399	     -0.81359944	     -0.51641376	      0.58537332	     -0.60371544	     61.36399927	     -5.34009126	     -1.36703624	     98.22672737	      1.71437981	     11.23213697	     -3.38022140	     -4.92841777	     61.94506206	     -8.91997723	      1.19861324	     98.52696943	      1.71962002	     12.28666830	     -8.47359654	     -4.92841777	    -41.34922354	      2.62722193	      1.48343581	     52.85076173	    -11.51107287	      9.96187471	     69.32627894	     89.47134830	     51.50605776	    -10.84787325	     10.09605454	     65.41522060	     78.01852431
      0.07000000	     25.59971990	     -2.66355156	     -0.83043919	     -0.51628815	      0.58534084	     -0.60366735	     61.41751185	     -5.37972681	     -1.43242046	     98.22830305	      1.71440731	     11.25836705	     -3.33425313	     -5.01339423	     61.98483257	     -8.94473909	      1.22908993	     98.52604699	      1.71960392	     12.31556342	     -8.51618589	     -5.01339423	    -41.42903739	      2.62851624	      1.52095052	     52.95563843	    -11.57134035	     10.06394677	     69.35165274	     89.20075468	     51.59684975	    -10.84314240	     10.10942802	     65.45308685	     77.81278548
      0.08000000	     25.54115386	     -2.69222580	     -0.85020066	     -0.51613990	      0.58529510	     -0.60361967	     61.48172611	     -5.41431640	     -1.49943581	     98.23298604	      1.71448904	     11.30806888	     -3.22468535	     -5.09031528	     62.04375544	     -8.97845822	      1.25313660	     98.53657502	      1.71978767	     12.32528698	     -8.54602994	     -5.09031528	    -41.50434490	      2.63741409	      1.55651930	     53.08022914	    -11.64603279	     10.22144414	     69.33690025	     89.07200722	     51.71204220	    -10.93454752	     10.27086781	     65.47018878	     77.69686953
      0.09000000	     25.46422965	     -2.69910513	     -0.87755341	     -0.51598298	      0.58524022	     -0.60356257	     61.57014304	     -5.44615087	     -1.53985217	     98.24356485	      1.71467368	     11.33649211	     -3.15740807	     -5.15664658	     62.11506849	     -9.00304954	      1.25881631	     98.54137608	      1.71987146	     12.34129833	     -8.55793816	     -5.15664658	    -41.57989807	      2.62967299	      1.58351618	     53.16870512	    -11.64672065	     10.21724270	     69.39005951	     88.92421245	     51.81818440	    -10.99182547	     10.30120603	     65.52193375	     77.57182244
      0.10000000	     25.39569075	     -2.66823632	     -0.89493864	     -0.51586342	      0.58516150	     -0.60351945	     61.67613271	     -5.49443152	     -1.52967274	     98.28140865	      1.71533417	     11.14605749	     -3.06653692	     -5.24655288	     62.18961164	     -8.99066132	      1.25876140	     98.54566105	      1.71994625	     12.14512264	     -8.31518582	     -5.24655288	    -41.68238504	      2.58442273	      1.57372018	     53.25949085	    -11.61449238	     10.15003393	     69.48489436	     88.42062624	     51.91874270	    -10.99107570	     10.23224964	     65.64762609	     77.25143420
      0.11000000	     25.28058497	     -2.68384737	     -0.92067050	     -0.51563425	      0.58509894	     -0.60349788	     61.76663304	     -5.50402305	     -1.56631373	     98.25634060	      1.71489665	     11.35971248	     -3.09162584	     -5.29239148	     62.28457374	     -9.00767836	      1.25392303	     98.54203158	      1.71988290	     12.38650252	     -8.54774656	     -5.29239148	    -41.70872645	      2.59947284	      1.59096195	     53.35172599	    -11.58916203	     10.16566371	     69.50815702	     88.38003222	     51.98528716	    -10.97313314	     10.23263825	     65.67461982	     77.16886696
      0.12000000	     25.17269015	     -2.67271769	     -0.93598778	     -0.51540735	      0.58504719	     -0.60349389	     61.87580020	     -5.53903937	     -1.56580721	     98.26128496	      1.71498295	     11.42545438	     -3.00075339	     -5.35612364	     62.37597390	     -8.98701674	      1.25423476	     98.54132477	      1.71987057	     12.42524874	     -8.55141804	     -5.35612364	    -41.75121858	      2.58855252	      1.58296526	     53.46001767	    -11.58450073	     10.21634555	     69.49869202	     88.25868812	     52.06602514	    -10.95539092	     10.22881784	     65.70600386	     77.06660881
      0.13000000	     25.08733454	     -2.64393071	     -0.94828747	     -0.51518679	      0.58505090	     -0.60347799	     61.98138440	     -5.58502197	     -1.54483621	     98.28275737	      1.71535771	     11.24698235	     -2.92301584	     -5.43217109	     62.45237314	     -8.96538198	      1.25550501	     98.53935772	      1.71983624	     12.24459158	     -8.33941886	     -5.43217109	    -41.84559078	      2.55812822	      1.56520762	     53.54134463	    -11.54983271	     10.15839352	     69.58188302	     87.80318836	     52.15037932	    -10.94252220	     10.16357144	     65.82576343	     76.76928628
      0.14000000	     24.93791525	     -2.67468849	     -0.92863815	     -0.51482245	      0.58501315	     -0.60350598	     62.09028874	     -5.61945658	     -1.61858415	     98.26569845	      1.71505998	     11.43747045	     -2.95692196	     -5.46196120	     62.59856800	     -8.95043784	      1.28450150	     98.54528994	      1.71993977	     12.47173211	     -8.56848489	     -5.46196120	    -41.84748039	      2.62116232	      1.56818324	     53.61826346	    -11.52710727	     10.15236131	     69.59896357	     87.80002304	     52.21146575	    -10.95308337	     10.17901604	     65.84078121	     76.70131558
      0.15000000	     24.80960457	     -2.69220031	     -0.90878808	     -0.51446995	      0.58497290	     -0.60351786	     62.19478391	     -5.65647569	     -1.67186714	     98.26904577	      1.71511840	     11.50327442	     -2.90401931	     -5.50913034	     62.73520786	     -8.93318641	      1.31858137	     98.56410169	      1.72026810	     12.50817822	     -8.58302521	     -5.50913034	    -41.88352219	      2.65878013	      1.57461263	     53.69891649	    -11.52802131	     10.16835458	     69.63445726	     87.70465343	     52.30443197	    -11.00466846	     10.28737754	     65.86785669	     76.61371549
      0.16000000	     24.67963602	     -2.70104647	     -0.90523393	     -0.51411636	      0.58497611	     -0.60353206	     62.30746320	     -5.67947337	     -1.70075109	     98.27364051	      1.71519859	     11.55646186	     -2.84951974	     -5.55318117	     62.85568866	     -8.91459045	      1.34178342	     98.56939957	      1.72036056	     12.54586336	     -8.60443344	     -5.55318117	    -41.92630760	      2.67513917	      1.58867639	     53.78022377	    -11.55446951	     10.20966702	     69.67560801	     87.64656938	     52.40405589	    -11.05480155	     10.40797533	     65.88833527	     76.55080732
      0.17000000	     24.58181879	     -2.67021952	     -0.91281826	     -0.51381293	      0.58500618	     -0.60354668	     62.42141132	     -5.71963823	     -1.67615503	     98.29643595	      1.71559645	     11.37909718	     -2.77873269	     -5.62094018	     62.93920429	     -8.89243828	      1.33740576	     98.57191805	      1.72040452	     12.36781202	     -8.39286844	     -5.62094018	    -42.03584911	      2.64374988	      1.56846206	     53.87787546	    -11.51920692	     10.16411776	     69.76003633	     87.21746260	     52.49602955	    -11.01964390	     10.35907717	     65.99924571	     76.27665957
      0.18000000	     24.37945186	     -2.67619165	     -0.91311081	     -0.51335133	      0.58492257	     -0.60360318	     62.60003701	     -5.74156081	     -1.70825420	     98.29323882	      1.71554065	     11.56782801	     -2.81411058	     -5.64219255	     63.12903535	     -8.85741876	      1.33561098	     98.57859329	      1.72052102	     12.59301933	     -8.63502633	     -5.64219255	    -42.00898299	      2.68636489	      1.56682823	     53.97312487	    -11.53015724	     10.21375566	     69.77734360	     87.27736699	     52.54584908	    -10.93077746	     10.29374060	     66.00749645	     76.24856435
